<?xml version="1.0" encoding="UTF-8"?>
<svg version="1.1" xmlns="http://www.w3.org/2000/svg" width="1920" height="1080">
<path d="M0 0 C633.6 0 1267.2 0 1920 0 C1920 356.4 1920 712.8 1920 1080 C1286.4 1080 652.8 1080 0 1080 C0 723.6 0 367.2 0 0 Z " fill="#EAE4ED" transform="translate(0,0)"/>
<path d="M0 0 C0.99 0.33 1.98 0.66 3 1 C1.56695339 5.24520798 -0.53877714 8.11589261 -3.375 11.5625 C-13.83191776 24.72165862 -21.9339717 39.79234538 -29 55 C-29.30776367 55.6595166 -29.61552734 56.3190332 -29.93261719 56.99853516 C-41.86944805 82.81177598 -48.45039047 110.28991607 -48.375 138.75 C-48.37412384 139.55992401 -48.37324768 140.36984802 -48.37234497 141.20431519 C-48.24908985 175.90383001 -39.69724333 208.10135205 -17 235 C-17.36967896 234.1793103 -17.36967896 234.1793103 -17.74682617 233.34204102 C-23.05883396 221.46967262 -28.1301175 209.72056025 -31 197 C-31.24339111 195.92202148 -31.24339111 195.92202148 -31.49169922 194.82226562 C-36.76954825 169.78924791 -36.22576151 140.7488042 -30 116 C-29.77505859 115.09910645 -29.55011719 114.19821289 -29.31835938 113.27001953 C-21.79384174 83.91299997 -6.29051643 35.52701095 20 18 C20.99 19.485 20.99 19.485 22 21 C21.41734375 21.71800781 20.8346875 22.43601562 20.234375 23.17578125 C-15.46619129 67.92344757 -34.75129701 123.04397668 -29.27709961 180.34057617 C-26.47471778 204.86494279 -17.31513892 237.00624175 2.76953125 253.23828125 C34.75524433 275.0411229 70.90747731 287.60770315 107.90625 298.109375 C175.81964418 317.52043584 175.81964418 317.52043584 190.375 339.5 C192.35935776 342.43084419 194.53861085 344.32458173 197.375 346.4375 C205.99838636 352.88355293 212.70978918 361.25647068 215 372 C216.5889865 392.70497564 212.04316033 410.01494651 198.5 425.9375 C196.6979428 427.99124289 194.8589228 429.99619057 193 432 C192.3090625 432.74894531 191.618125 433.49789063 190.90625 434.26953125 C186.59477627 438.74886974 181.87762313 442.64129036 177.03515625 446.53125 C173.73993027 449.21153677 170.52417669 451.97088148 167.3125 454.75 C161.59846182 459.68194253 155.77568538 464.46395053 149.90283203 469.20507812 C145.07143926 473.11146024 140.30554788 477.08612422 135.58178711 481.12182617 C132.27350217 483.94346245 128.9055669 486.67216913 125.5 489.375 C96.95760477 512.67491447 73.46932168 546.36958015 69.18310547 583.59985352 C66.95865088 612.75800423 69.59660251 644.97754558 88.5 668.75 C104.17522283 685.24069685 132.33351585 693.9509417 154 698 C155.59328125 698.30744141 155.59328125 698.30744141 157.21875 698.62109375 C184.51080099 703.07756604 213.53983341 699.49975274 240 692 C240.68626465 691.80744629 241.3725293 691.61489258 242.07958984 691.41650391 C281.44504653 680.14752754 318.87614673 662.5327679 353 640 C353.70882324 639.53207031 354.41764648 639.06414063 355.14794922 638.58203125 C369.54893292 629.01042095 382.93048774 618.30427944 396 607 C396.82757812 606.28585937 397.65515625 605.57171875 398.5078125 604.8359375 C403.85575018 600.12339835 408.97739916 595.18031878 414.0625 590.1875 C414.73071777 589.54071289 415.39893555 588.89392578 416.08740234 588.22753906 C417.02060303 587.30086426 417.02060303 587.30086426 417.97265625 586.35546875 C418.53218994 585.80528076 419.09172363 585.25509277 419.66821289 584.68823242 C421.26080242 582.66939528 421.81760654 581.57513849 422 579 C421.03367119 576.1932566 421.03367119 576.1932566 419.46484375 573.23046875 C418.90531006 572.10165283 418.34577637 570.97283691 417.76928711 569.80981445 C417.46973114 569.21802399 417.17017517 568.62623352 416.86154175 568.01651001 C415.31718705 564.95967821 413.81698101 561.88128538 412.3125 558.8046875 C411.73371094 557.62358398 411.15492188 556.44248047 410.55859375 555.22558594 C405.20220872 544.14028534 401.64519698 532.97969017 399 521 C398.773125 520.11570312 398.54625 519.23140625 398.3125 518.3203125 C393.53505952 497.55171707 396.48351107 472.44499326 407.75 454.3125 C414.06892258 445.45959324 421.46489148 438.37224894 432 435 C439.89015477 433.79419562 446.84624462 434.33435337 453.8125 438.37890625 C458.52961959 441.8746288 462.06030525 445.87547274 464.4375 451.25 C466.15320604 454.26964263 466.72073041 454.54281643 469.75 455.875 C476.47715572 458.86759501 481.1446933 464.92639966 484.09033203 471.58789062 C487.61096381 480.92332863 488.50042427 490.35366656 488.375 500.25 C488.36412354 501.42949219 488.35324707 502.60898437 488.34204102 503.82421875 C487.72656703 537.75193207 471.05735543 573.94264457 447 598 C447.35026565 602.05847433 449.784393 605.63272841 451.68359375 609.16015625 C452.05477325 609.85784622 452.42595276 610.55553619 452.80838013 611.27436829 C453.60268185 612.76611097 454.39896779 614.25679852 455.197052 615.746521 C456.44488113 618.07628094 457.68694816 620.4090285 458.92749023 622.74267578 C462.30477012 629.09254543 465.6945001 635.43558858 469.1015625 641.76953125 C482.47120273 666.71125582 493.15177994 692.77862796 499.125 720.5 C499.28387695 721.23500732 499.44275391 721.97001465 499.60644531 722.72729492 C500.10697222 725.14589361 500.55850119 727.56993782 501 730 C501.18095215 730.92369385 501.3619043 731.8473877 501.54833984 732.79907227 C503.46514935 743.95243249 503.37218489 755.14941674 503.37060547 766.43676758 C503.37495181 769.8991111 503.41129528 773.36014864 503.44921875 776.82226562 C503.68727012 823.84034527 486.68917299 868.93502006 454 903 C452.66582031 904.42892578 452.66582031 904.42892578 451.3046875 905.88671875 C443.9265185 913.64748726 435.88677311 920.04360788 427 926 C426.39816895 926.40347656 425.79633789 926.80695312 425.17626953 927.22265625 C413.38139648 934.98977721 395.457243 946 381 946 C381 944.68 381 943.36 381 942 C381.53665283 941.84031738 382.07330566 941.68063477 382.6262207 941.51611328 C424.12738808 928.95869455 456.79500103 902.14755965 477.84155273 864.22045898 C485.75412816 849.34076779 490.96616848 833.31123754 495 817 C495.21172852 816.20045898 495.42345703 815.40091797 495.64160156 814.57714844 C502.98534291 786.00522291 501.70423033 750.60628983 495 722 C494.74798828 720.91928223 494.49597656 719.83856445 494.23632812 718.72509766 C484.32122235 677.41810123 464.82045272 639.22483 443 603 C442.11092455 605.43799816 441.8461272 606.6023893 442.79760742 609.06103516 C443.22920166 609.79628418 443.6607959 610.5315332 444.10546875 611.2890625 C444.58846436 612.1344458 445.07145996 612.9798291 445.5690918 613.85083008 C446.1031665 614.76630615 446.63724121 615.68178223 447.1875 616.625 C470.8062012 658.60252569 485.50577007 703.57981928 485.375 751.9375 C485.3737915 752.7769516 485.37258301 753.6164032 485.37133789 754.48129272 C485.18994341 801.34135004 470.84979893 849.11870887 437.125 883.0625 C436.08594327 884.04443581 435.04405681 885.02338227 434 886 C433.21109375 886.78890625 432.4221875 887.5778125 431.609375 888.390625 C423.23155996 896.76844004 414.67310488 903.62434697 404.68066406 909.93066406 C403.27901079 910.82247716 401.89835004 911.74717584 400.5234375 912.6796875 C390.21844876 919.41616423 374.51113733 927 362 927 C362 926.01 362 925.02 362 924 C362.5261792 923.8455542 363.0523584 923.6911084 363.59448242 923.53198242 C389.24925547 915.85577293 410.63282029 903.48524985 430 885 C430.63550781 884.42765625 431.27101563 883.8553125 431.92578125 883.265625 C452.58226661 863.9349182 466.84936253 836.08472589 474 809 C474.33515625 807.81019531 474.6703125 806.62039063 475.015625 805.39453125 C476.14193562 801.2903831 477.1077731 797.160946 478 793 C478.15388184 792.28537598 478.30776367 791.57075195 478.46630859 790.83447266 C485.85741043 754.48623237 481.30389954 714.03441782 470 679 C469.61787354 677.77796875 469.61787354 677.77796875 469.22802734 676.53125 C462.7512185 656.00037506 453.16880257 636.80035955 443.06396484 617.8449707 C442.53367676 616.8468335 442.00338867 615.84869629 441.45703125 614.8203125 C440.98241455 613.93617676 440.50779785 613.05204102 440.01879883 612.14111328 C439 610 439 610 439 608 C438.3296875 608.67804687 437.659375 609.35609375 436.96875 610.0546875 C410.8957315 636.10939629 381.78557334 657.46469232 350 676 C349.24847656 676.43844238 348.49695312 676.87688477 347.72265625 677.32861328 C322.02846633 692.20811408 294.9335768 703.7132641 266.50927734 712.24316406 C264.22492322 712.93215976 261.95039967 713.64688285 259.67578125 714.3671875 C215.69449196 727.88760961 167.79067407 726.50268036 126.46313477 705.07104492 C114.78543101 698.7423539 102.55069574 691.54416722 93.859375 681.3828125 C90.2698143 677.2080864 86.38202295 673.41568695 82.42431641 669.5925293 C59.25491 647.11551817 46.62873442 621.74534294 45.8125 588.953125 C45.44012251 563.57003255 49.62038468 541.31303351 62 519 C62.56589844 517.94425781 63.13179687 516.88851562 63.71484375 515.80078125 C70.97762375 502.72777725 80.67332682 491.70867096 91 481 C91.53560547 480.44248047 92.07121094 479.88496094 92.62304688 479.31054688 C98.81808841 472.89451693 105.11940297 466.86176354 112.1171875 461.3125 C115.50165896 458.59758522 118.781176 455.77537801 122.0625 452.9375 C126.8295262 448.82777288 131.6548213 444.81805207 136.58984375 440.91015625 C174.29938245 412.05898394 174.29938245 412.05898394 193 370 C193.81524927 361.5254335 193.85324813 352.30088193 189 345 C184.39084362 341.38928485 179.39134199 339.21102993 174 337 C173.25073242 336.68111816 172.50146484 336.36223633 171.72949219 336.03369141 C157.79158034 330.15664563 143.31352798 325.96342165 128.81881714 321.71315002 C79.88685903 307.35287558 30.59740076 291.78335497 -4.52587891 252.85791016 C-7.23318082 249.86247338 -9.90740661 247.09958541 -13.0625 244.5625 C-38.35812004 223.26935149 -50.01019778 187.82370457 -52.78613281 156.00415039 C-56.92500854 97.86617573 -34.40851677 45.62151585 0 0 Z " fill="#C6B098" transform="translate(733,67)"/>
<path d="M0 0 C0.99 0.33 1.98 0.66 3 1 C1.56695339 5.24520798 -0.53877714 8.11589261 -3.375 11.5625 C-13.83191776 24.72165862 -21.9339717 39.79234538 -29 55 C-29.30776367 55.6595166 -29.61552734 56.3190332 -29.93261719 56.99853516 C-41.86944805 82.81177598 -48.45039047 110.28991607 -48.375 138.75 C-48.37412384 139.55992401 -48.37324768 140.36984802 -48.37234497 141.20431519 C-48.24908985 175.90383001 -39.69724333 208.10135205 -17 235 C-17.36967896 234.1793103 -17.36967896 234.1793103 -17.74682617 233.34204102 C-23.05883396 221.46967262 -28.1301175 209.72056025 -31 197 C-31.24339111 195.92202148 -31.24339111 195.92202148 -31.49169922 194.82226562 C-36.76954825 169.78924791 -36.22576151 140.7488042 -30 116 C-29.77505859 115.09910645 -29.55011719 114.19821289 -29.31835938 113.27001953 C-21.79384174 83.91299997 -6.29051643 35.52701095 20 18 C20.99 19.485 20.99 19.485 22 21 C21.41734375 21.71800781 20.8346875 22.43601562 20.234375 23.17578125 C-15.46619129 67.92344757 -34.75129701 123.04397668 -29.27709961 180.34057617 C-26.47471778 204.86494279 -17.31513892 237.00624175 2.76953125 253.23828125 C34.75524433 275.0411229 70.90747731 287.60770315 107.90625 298.109375 C175.81964418 317.52043584 175.81964418 317.52043584 190.375 339.5 C192.35935776 342.43084419 194.53861085 344.32458173 197.375 346.4375 C205.99838636 352.88355293 212.70978918 361.25647068 215 372 C216.5889865 392.70497564 212.04316033 410.01494651 198.5 425.9375 C196.6979428 427.99124289 194.8589228 429.99619057 193 432 C192.3090625 432.74894531 191.618125 433.49789063 190.90625 434.26953125 C186.59477627 438.74886974 181.87762313 442.64129036 177.03515625 446.53125 C173.73993027 449.21153677 170.52417669 451.97088148 167.3125 454.75 C161.59846182 459.68194253 155.77568538 464.46395053 149.90283203 469.20507812 C145.07143926 473.11146024 140.30554788 477.08612422 135.58178711 481.12182617 C132.27350217 483.94346245 128.9055669 486.67216913 125.5 489.375 C96.95760477 512.67491447 73.46932168 546.36958015 69.18310547 583.59985352 C66.95865088 612.75800423 69.59660251 644.97754558 88.5 668.75 C104.17522283 685.24069685 132.33351585 693.9509417 154 698 C155.59328125 698.30744141 155.59328125 698.30744141 157.21875 698.62109375 C184.51080099 703.07756604 213.53983341 699.49975274 240 692 C240.68626465 691.80744629 241.3725293 691.61489258 242.07958984 691.41650391 C269.961102 683.4349859 298.49049871 672.56801395 323.35864258 657.55224609 C324.87487397 656.64759514 326.4338795 655.81524081 328 655 C328.66 655.33 329.32 655.66 330 656 C328.57854265 659.5550601 327.12408347 660.83256519 323.7578125 662.59375 C322.87174316 663.06047119 321.98567383 663.52719238 321.07275391 664.00805664 C319.61361572 664.7465686 319.61361572 664.7465686 318.125 665.5 C317.10196777 666.02263428 316.07893555 666.54526855 315.02490234 667.08374023 C257.73551965 695.89228801 193.30269429 715.36194134 130 696 C119.90244681 692.65083311 110.41663056 687.9041928 101 683 C121.74897621 699.65641952 144.5649199 710.65190014 170.77807617 715.57421875 C172.31467056 715.86867217 173.8461127 716.19086951 175.37231445 716.53515625 C183.93845614 718.34758256 192.47404539 718.40150498 201.1875 718.375 C201.98533905 718.37312683 202.7831781 718.37125366 203.60519409 718.36932373 C273.80225479 718.01364718 351.02009067 680.47386007 403 635 C403.66 635.33 404.32 635.66 405 636 C404.54625 636.4125 404.0925 636.825 403.625 637.25 C401.92429795 638.89638828 401.92429795 638.89638828 401.1237793 640.92919922 C399.8301423 643.31299871 398.59596595 644.32032746 396.39453125 645.8828125 C395.66669434 646.40480225 394.93885742 646.92679199 394.18896484 647.46459961 C393.40473145 648.01253174 392.62049805 648.56046387 391.8125 649.125 C390.58974365 649.99040405 390.58974365 649.99040405 389.34228516 650.87329102 C386.90210867 652.59284173 384.45243132 654.29798912 382 656 C381.36336426 656.44682129 380.72672852 656.89364258 380.07080078 657.35400391 C344.50368892 682.24999231 305.26966931 700.04425393 264 713 C263.14535156 713.27569824 262.29070312 713.55139648 261.41015625 713.83544922 C217.59515983 727.89307697 169.98868303 726.6112682 128.375 706.0625 C116.02334992 699.65718127 102.95713602 692.01935207 93.859375 681.3828125 C90.2698143 677.2080864 86.38202295 673.41568695 82.42431641 669.5925293 C59.25491 647.11551817 46.62873442 621.74534294 45.8125 588.953125 C45.44012251 563.57003255 49.62038468 541.31303351 62 519 C62.56589844 517.94425781 63.13179687 516.88851562 63.71484375 515.80078125 C70.97762375 502.72777725 80.67332682 491.70867096 91 481 C91.53560547 480.44248047 92.07121094 479.88496094 92.62304688 479.31054688 C98.81808841 472.89451693 105.11940297 466.86176354 112.1171875 461.3125 C115.50165896 458.59758522 118.781176 455.77537801 122.0625 452.9375 C126.8295262 448.82777288 131.6548213 444.81805207 136.58984375 440.91015625 C174.29938245 412.05898394 174.29938245 412.05898394 193 370 C193.81524927 361.5254335 193.85324813 352.30088193 189 345 C184.39084362 341.38928485 179.39134199 339.21102993 174 337 C173.25073242 336.68111816 172.50146484 336.36223633 171.72949219 336.03369141 C157.79158034 330.15664563 143.31352798 325.96342165 128.81881714 321.71315002 C79.88685903 307.35287558 30.59740076 291.78335497 -4.52587891 252.85791016 C-7.23318082 249.86247338 -9.90740661 247.09958541 -13.0625 244.5625 C-38.35812004 223.26935149 -50.01019778 187.82370457 -52.78613281 156.00415039 C-56.92500854 97.86617573 -34.40851677 45.62151585 0 0 Z " fill="#C7B099" transform="translate(733,67)"/>
<path d="M0 0 C8.11304207 4.35333965 13.21461174 12.66480274 16.3515625 21.1640625 C17.69953313 27.05940395 17.30594895 33.00074017 17 39 C17.00257813 39.79148437 17.00515625 40.58296875 17.0078125 41.3984375 C16.34233249 60.6973577 -0.31442823 77.22552202 -13.4375 89.57177734 C-16.57981755 92.44405198 -19.86477609 95.12123343 -23.19921875 97.765625 C-26.29655619 100.23658318 -29.3035308 102.79807404 -32.3125 105.375 C-36.79233666 109.19486072 -41.35262059 112.88615862 -46 116.5 C-55.51510111 123.90723366 -64.67822274 131.69690821 -73.59375 139.81640625 C-75.24780206 141.31740479 -76.9153167 142.80365909 -78.59375 144.27734375 C-83.83572837 148.89565301 -88.57730328 153.59642797 -93 159 C-93.44102051 159.52867676 -93.88204102 160.05735352 -94.33642578 160.60205078 C-101.3360338 169.00573721 -107.66901582 177.41984223 -113 187 C-113.50225098 187.8979126 -113.50225098 187.8979126 -114.01464844 188.81396484 C-130.64014242 218.95059971 -134.82294479 254.68359688 -126 288 C-124.05063354 294.16491372 -121.59412081 300.08335992 -119 306 C-118.32659727 307.66395643 -117.65656722 309.32932896 -117 311 C-136.98278162 292.26614223 -145.09132834 265.93698024 -146.3203125 239.16015625 C-147.23971125 206.49227128 -137.30593337 175.77691198 -116.31396484 150.57861328 C-114.95858872 148.95024799 -113.63011372 147.30200875 -112.30078125 145.65234375 C-98.42223055 128.70355109 -81.47662271 114.53379812 -64.23852539 101.13037109 C-59.59522759 97.50750019 -55.09009935 93.74238635 -50.61547852 89.9140625 C-47.44207185 87.2032926 -44.22324006 84.57304365 -40.9375 82 C-35.0118776 77.29804272 -29.5071146 72.17867364 -24 67 C-23.26652344 66.33226562 -22.53304687 65.66453125 -21.77734375 64.9765625 C-8.99097423 52.9273793 0.59473119 36.38839344 1.21484375 18.6015625 C1.30840238 12.31294164 1.20330877 6.20092182 0 0 Z " fill="#EAE4EC" transform="translate(928,416)"/>
<path d="M0 0 C0.66 0 1.32 0 2 0 C3.70733046 3.07274846 5.38725648 6.15965788 7.0625 9.25 C7.54783203 10.12269531 8.03316406 10.99539063 8.53320312 11.89453125 C9.21479492 13.16103516 9.21479492 13.16103516 9.91015625 14.453125 C10.54642944 15.61569824 10.54642944 15.61569824 11.19555664 16.80175781 C12.15825622 19.43245492 12.09639283 20.44239404 11 23 C9.59228516 24.7800293 9.59228516 24.7800293 7.7890625 26.57421875 C6.79579956 27.56869019 6.79579956 27.56869019 5.7824707 28.58325195 C5.07050537 29.27765381 4.35854004 29.97205566 3.625 30.6875 C2.89692139 31.40574951 2.16884277 32.12399902 1.41870117 32.86401367 C-3.3069031 37.47798539 -8.12385769 41.80038312 -13.3203125 45.87890625 C-15.76459252 47.81366434 -18.12251379 49.82402068 -20.47241211 51.87158203 C-38.48728148 67.4883412 -58.83462742 80.46806517 -79.77392578 91.79443359 C-81.34066596 92.64292701 -82.90383488 93.49803147 -84.46435547 94.35791016 C-116.12092271 111.75518674 -149.86391925 123.81261947 -185 132 C-186.21671387 132.29245605 -186.21671387 132.29245605 -187.45800781 132.59082031 C-209.34623333 137.65834663 -236.31561853 137.51495527 -257.99023438 131.546875 C-259.93258243 131.01834492 -261.896225 130.57008664 -263.859375 130.125 C-286.30899921 124.82044744 -306.4167783 113.69847439 -324 99 C-323.01 98.505 -323.01 98.505 -322 98 C-319.51115794 99.27350344 -317.10852532 100.60729493 -314.6875 102 C-273.7539378 124.51830185 -224.51444761 122.77310858 -180.81781006 110.22158813 C-119.26692751 92.21767536 -40.38433704 55.97774089 -1.37890625 1.74609375 C-0.92386719 1.16988281 -0.46882813 0.59367188 0 0 Z " fill="#EAE4EC" transform="translate(1157,651)"/>
<path d="M0 0 C0.98484375 0.00902344 1.9696875 0.01804687 2.984375 0.02734375 C4.10585937 0.04474609 4.10585937 0.04474609 5.25 0.0625 C14.52976386 25.25043048 8.15755468 52.72342321 -2.66796875 76.36328125 C-8.65231939 88.87601441 -15.74774355 102.46427565 -24.75 113.0625 C-25.41 113.0625 -26.07 113.0625 -26.75 113.0625 C-34.72444588 92.17600613 -34.72444588 92.17600613 -36.75 82.0625 C-36.95367188 81.15886719 -37.15734375 80.25523437 -37.3671875 79.32421875 C-41.59223033 57.47553837 -40.04230442 34.99114056 -27.75 16.0625 C-20.83486888 6.50207964 -12.04703875 -0.14341713 0 0 Z " fill="#EAE4ED" transform="translate(1190.75,523.9375)"/>
<path d="M0 0 C3.80377643 1.4247581 5.97936924 2.63322952 8.625 5.75 C9.19476562 6.40484375 9.76453125 7.0596875 10.3515625 7.734375 C20.38635533 21.52627036 19.62442392 42.10303888 17.34375 58.2578125 C12.30496946 88.16850114 -3.1821262 113.74269823 -22 137 C-25.6968201 133.60308418 -27.56838428 129.4912151 -29.8125 125.0625 C-30.4612207 123.84530273 -30.4612207 123.84530273 -31.12304688 122.60351562 C-31.52201172 121.81783203 -31.92097656 121.03214844 -32.33203125 120.22265625 C-32.70046143 119.50859619 -33.0688916 118.79453613 -33.44848633 118.05883789 C-34 116 -34 116 -33.23120117 113.91455078 C-31.82544545 111.728563 -30.32388687 109.6237442 -28.77661133 107.53588867 C-10.24083869 82.51312733 2.02688165 54.31309486 2.25 22.875 C2.25942627 21.87339844 2.26885254 20.87179687 2.27856445 19.83984375 C2.24894217 13.03454292 1.43348898 6.64988679 0 0 Z " fill="#EAE4EC" transform="translate(1200,526)"/>
<path d="M0 0 C5.08410438 3.02903537 9.46376359 7.42644701 11.3515625 13.08984375 C9.88396484 13.31027344 9.88396484 13.31027344 8.38671875 13.53515625 C-5.36190913 15.80611929 -13.88432848 21.46368595 -22.171875 32.875 C-34.90846541 51.97988561 -35.69340467 75.31887812 -31.69921875 97.234375 C-29.48358492 108.13140559 -25.95010151 119.0172873 -21.21484375 129.08203125 C-20.48117192 131.68277138 -20.96115915 133.51142692 -21.6484375 136.08984375 C-22.6384375 136.41984375 -23.6284375 136.74984375 -24.6484375 137.08984375 C-35.13401925 119.07690304 -42.9336533 99.39018095 -47.6484375 79.08984375 C-48.01388672 77.55457031 -48.01388672 77.55457031 -48.38671875 75.98828125 C-52.32511557 56.53742348 -50.22912197 34.32075571 -39.8984375 17.1875 C-30.65711972 3.60499866 -16.80723487 -5.77593765 0 0 Z " fill="#EAE3EC" transform="translate(1182.6484375,506.91015625)"/>
<path d="M0 0 C3.232566 1.17246759 6.24404816 2.61731211 9.28125 4.21484375 C39.43568122 20.03230723 72.2003656 29.56053037 104.6953125 39.3203125 C151.71731772 53.44913237 151.71731772 53.44913237 168 70 C167.01 70.495 167.01 70.495 166 71 C163.22109674 69.92459201 160.52891908 68.77994119 157.8125 67.5625 C142.66646839 60.99408276 127.1289705 55.74839798 111.2199707 51.36547852 C102.51437947 48.93739957 93.96810252 46.06174872 85.41113281 43.15844727 C80.62830948 41.53664835 75.85856395 39.93685135 71.00390625 38.54296875 C49.7322867 32.25238724 13.06196107 19.5929416 0 0 Z " fill="#E9E3EA" transform="translate(748,333)"/>
<path d="M0 0 C3.57081423 3.27876082 5.21312962 7.10551318 7.25 11.4375 C7.62640625 12.20126953 8.0028125 12.96503906 8.390625 13.75195312 C8.74125 14.49251953 9.091875 15.23308594 9.453125 15.99609375 C9.77442383 16.66825928 10.09572266 17.3404248 10.42675781 18.03295898 C11.11268642 20.38667566 10.78121957 21.70908321 10 24 C9.34 24 8.68 24 8 24 C6.28879234 21.11756577 4.61048128 18.21726135 2.9375 15.3125 C2.45216797 14.49587891 1.96683594 13.67925781 1.46679688 12.83789062 C1.01240234 12.04189453 0.55800781 11.24589844 0.08984375 10.42578125 C-0.33433838 9.69786377 -0.75852051 8.96994629 -1.19555664 8.2199707 C-2.20707743 5.42854171 -1.85133181 3.80768572 -1 1 C-0.67 0.67 -0.34 0.34 0 0 Z " fill="#E8E1E9" transform="translate(1163,644)"/>
</svg>
